<?xml version="1.0" encoding="UTF-8" standalone="no"?>
<!DOCTYPE svg PUBLIC "-//W3C//DTD SVG 1.1//EN" "http://www.w3.org/Graphics/SVG/1.1/DTD/svg11.dtd">
<svg xmlns="http://www.w3.org/2000/svg" version="1.1" viewBox="0.00 0.00 100.00 100.00">
<path stroke="#809bb3" stroke-width="2.00" fill="none" stroke-linecap="butt" vector-effect="non-scaling-stroke" d="
  M 41.84 73.14
  C 42.28 71.19 43.39 69.63 43.27 67.67
  C 42.67 57.98 28.99 57.83 28.33 67.30
  C 28.07 71.03 30.92 74.28 33.81 76.18
  C 46.68 84.64 69.16 82.08 71.53 63.48
  C 73.15 50.76 61.41 45.45 52.32 40.45
  C 47.55 37.83 43.28 28.93 48.82 24.75
  C 55.20 19.95 62.58 27.31 63.60 33.68
  Q 63.69 34.28 64.30 34.30
  L 65.99 34.36
  Q 66.63 34.39 66.59 33.75
  L 66.03 22.54
  A 0.76 0.75 9.6 0 0 65.55 21.87
  C 54.69 17.43 36.90 17.63 32.27 30.69
  Q 30.36 36.06 32.05 41.24
  C 36.38 54.49 53.40 52.49 56.94 65.33
  C 59.03 72.92 54.00 78.34 45.96 76.52
  Q 43.64 76.00 42.08 74.15
  Q 41.71 73.71 41.84 73.14"
/>
<path fill="#013766" d="
  M 0.00 0.00
  L 100.00 0.00
  L 100.00 100.00
  L 0.00 100.00
  L 0.00 0.00
  Z
  M 41.84 73.14
  C 42.28 71.19 43.39 69.63 43.27 67.67
  C 42.67 57.98 28.99 57.83 28.33 67.30
  C 28.07 71.03 30.92 74.28 33.81 76.18
  C 46.68 84.64 69.16 82.08 71.53 63.48
  C 73.15 50.76 61.41 45.45 52.32 40.45
  C 47.55 37.83 43.28 28.93 48.82 24.75
  C 55.20 19.95 62.58 27.31 63.60 33.68
  Q 63.69 34.28 64.30 34.30
  L 65.99 34.36
  Q 66.63 34.39 66.59 33.75
  L 66.03 22.54
  A 0.76 0.75 9.6 0 0 65.55 21.87
  C 54.69 17.43 36.90 17.63 32.27 30.69
  Q 30.36 36.06 32.05 41.24
  C 36.38 54.49 53.40 52.49 56.94 65.33
  C 59.03 72.92 54.00 78.34 45.96 76.52
  Q 43.64 76.00 42.08 74.15
  Q 41.71 73.71 41.84 73.14
  Z"
/>
<path fill="#ffffff" d="
  M 42.08 74.15
  Q 43.64 76.00 45.96 76.52
  C 54.00 78.34 59.03 72.92 56.94 65.33
  C 53.40 52.49 36.38 54.49 32.05 41.24
  Q 30.36 36.06 32.27 30.69
  C 36.90 17.63 54.69 17.43 65.55 21.87
  A 0.76 0.75 9.6 0 1 66.03 22.54
  L 66.59 33.75
  Q 66.63 34.39 65.99 34.36
  L 64.30 34.30
  Q 63.69 34.28 63.60 33.68
  C 62.58 27.31 55.20 19.95 48.82 24.75
  C 43.28 28.93 47.55 37.83 52.32 40.45
  C 61.41 45.45 73.15 50.76 71.53 63.48
  C 69.16 82.08 46.68 84.64 33.81 76.18
  C 30.92 74.28 28.07 71.03 28.33 67.30
  C 28.99 57.83 42.67 57.98 43.27 67.67
  C 43.39 69.63 42.28 71.19 41.84 73.14
  Q 41.71 73.71 42.08 74.15
  Z"
/>
</svg>
