<?xml version="1.0" encoding="UTF-8" standalone="no"?>
<!DOCTYPE svg PUBLIC "-//W3C//DTD SVG 1.1//EN" "http://www.w3.org/Graphics/SVG/1.1/DTD/svg11.dtd">
<svg xmlns="http://www.w3.org/2000/svg" version="1.1" viewBox="0.00 0.00 100.00 100.00">
<path stroke="#a8dca4" stroke-width="2.00" fill="none" stroke-linecap="butt" vector-effect="non-scaling-stroke" d="
  M 53.18 65.98
  A 0.69 0.69 0.0 0 1 52.50 65.29
  L 52.50 38.75
  Q 52.50 38.00 51.75 38.00
  L 43.50 38.00
  Q 43.00 38.00 43.00 38.50
  L 43.00 71.26
  Q 43.00 71.88 43.62 71.90
  Q 54.48 72.22 65.30 71.97
  Q 76.83 71.70 79.59 61.09
  C 82.59 49.58 82.06 29.83 65.24 29.76
  Q 41.41 29.66 17.55 29.79
  Q 17.09 29.79 17.11 30.25
  L 17.30 35.28
  Q 17.32 35.75 17.79 35.75
  L 30.50 35.75
  A 0.50 0.50 0.0 0 1 31.00 36.25
  L 31.00 71.50
  Q 31.00 72.00 31.50 72.00
  L 39.88 72.00
  A 0.63 0.62 90.0 0 0 40.50 71.37
  L 40.50 36.48
  Q 40.50 35.82 41.16 35.81
  Q 51.23 35.59 61.33 35.87
  Q 68.89 36.07 70.00 43.76
  C 71.01 50.64 72.06 65.67 62.00 65.94
  Q 57.46 66.07 53.18 65.98"
/>
<path fill="#51b948" d="
  M 0.00 0.00
  L 100.00 0.00
  L 100.00 100.00
  L 0.00 100.00
  L 0.00 0.00
  Z
  M 53.18 65.98
  A 0.69 0.69 0.0 0 1 52.50 65.29
  L 52.50 38.75
  Q 52.50 38.00 51.75 38.00
  L 43.50 38.00
  Q 43.00 38.00 43.00 38.50
  L 43.00 71.26
  Q 43.00 71.88 43.62 71.90
  Q 54.48 72.22 65.30 71.97
  Q 76.83 71.70 79.59 61.09
  C 82.59 49.58 82.06 29.83 65.24 29.76
  Q 41.41 29.66 17.55 29.79
  Q 17.09 29.79 17.11 30.25
  L 17.30 35.28
  Q 17.32 35.75 17.79 35.75
  L 30.50 35.75
  A 0.50 0.50 0.0 0 1 31.00 36.25
  L 31.00 71.50
  Q 31.00 72.00 31.50 72.00
  L 39.88 72.00
  A 0.63 0.62 90.0 0 0 40.50 71.37
  L 40.50 36.48
  Q 40.50 35.82 41.16 35.81
  Q 51.23 35.59 61.33 35.87
  Q 68.89 36.07 70.00 43.76
  C 71.01 50.64 72.06 65.67 62.00 65.94
  Q 57.46 66.07 53.18 65.98
  Z"
/>
<path fill="#ffffff" d="
  M 53.18 65.98
  Q 57.46 66.07 62.00 65.94
  C 72.06 65.67 71.01 50.64 70.00 43.76
  Q 68.89 36.07 61.33 35.87
  Q 51.23 35.59 41.16 35.81
  Q 40.50 35.82 40.50 36.48
  L 40.50 71.37
  A 0.63 0.62 -90.0 0 1 39.88 72.00
  L 31.50 72.00
  Q 31.00 72.00 31.00 71.50
  L 31.00 36.25
  A 0.50 0.50 0.0 0 0 30.50 35.75
  L 17.79 35.75
  Q 17.32 35.75 17.30 35.28
  L 17.11 30.25
  Q 17.09 29.79 17.55 29.79
  Q 41.41 29.66 65.24 29.76
  C 82.06 29.83 82.59 49.58 79.59 61.09
  Q 76.83 71.70 65.30 71.97
  Q 54.48 72.22 43.62 71.90
  Q 43.00 71.88 43.00 71.26
  L 43.00 38.50
  Q 43.00 38.00 43.50 38.00
  L 51.75 38.00
  Q 52.50 38.00 52.50 38.75
  L 52.50 65.29
  A 0.69 0.69 0.0 0 0 53.18 65.98
  Z"
/>
</svg>
