<svg version="1.1" viewBox="0.0 0.0 500.0 500.0" fill="none" stroke="none" stroke-linecap="square" stroke-miterlimit="10" xmlns:xlink="http://www.w3.org/1999/xlink" xmlns="http://www.w3.org/2000/svg"><clipPath id="p.0"><path d="m0 0l500.0 0l0 500.0l-500.0 0l0 -500.0z" clip-rule="nonzero"/></clipPath><g clip-path="url(#p.0)"><path fill="#000000" fill-opacity="0.0" d="m0 0l500.0 0l0 500.0l-500.0 0z" fill-rule="evenodd"/><path fill="#121212" d="m0 0l500.0 0l0 500.0l-500.0 0z" fill-rule="evenodd"/><path stroke="#121212" stroke-width="1.0" stroke-linejoin="round" stroke-linecap="butt" d="m0 0l500.0 0l0 500.0l-500.0 0z" fill-rule="evenodd"/><path fill="#3f51b5" d="m82.16758 63.613186l177.8724 0l157.79288 186.38681l-157.79288 186.38681l-177.8724 0l157.79288 -186.38681z" fill-rule="evenodd"/><path stroke="#3f51b5" stroke-width="1.0" stroke-linejoin="round" stroke-linecap="butt" d="m82.16758 63.613186l177.8724 0l157.79288 186.38681l-157.79288 186.38681l-177.8724 0l157.79288 -186.38681z" fill-rule="evenodd"/><path fill="#ffffff" d="m82.16758 436.36804l156.64047 -186.36804l179.02481 0l-156.64047 186.36804z" fill-rule="evenodd"/><path stroke="#ffffff" stroke-width="1.0" stroke-linejoin="round" stroke-linecap="butt" d="m82.16758 436.36804l156.64047 -186.36804l179.02481 0l-156.64047 186.36804z" fill-rule="evenodd"/></g></svg>