<?xml version="1.0" encoding="UTF-8" standalone="no"?>
<!DOCTYPE svg PUBLIC "-//W3C//DTD SVG 1.1//EN" "http://www.w3.org/Graphics/SVG/1.1/DTD/svg11.dtd">
<svg xmlns="http://www.w3.org/2000/svg" version="1.1" viewBox="0.00 0.00 100.00 100.00">
<path stroke="#9099af" stroke-width="2.00" fill="none" stroke-linecap="butt" vector-effect="non-scaling-stroke" d="
  M 68.29 54.57
  C 68.37 57.29 68.30 63.66 65.28 64.79
  C 58.14 67.45 44.68 66.16 37.89 65.17
  C 34.31 64.65 32.46 62.83 32.12 59.32
  C 31.59 54.03 29.59 35.92 37.26 34.72
  Q 49.53 32.79 63.19 34.58
  C 66.96 35.08 68.27 37.57 67.89 41.09
  Q 67.82 41.75 68.49 41.75
  L 74.00 41.75
  Q 74.52 41.75 74.60 41.24
  C 75.69 34.29 71.73 31.42 65.25 30.67
  C 57.13 29.73 35.46 28.11 28.73 33.74
  C 23.83 37.85 24.53 50.92 25.32 57.62
  C 25.98 63.18 27.79 67.74 33.50 68.79
  Q 48.98 71.64 66.36 69.05
  C 75.82 67.64 75.41 57.82 74.92 50.43
  Q 74.90 50.00 74.47 50.00
  L 49.38 50.00
  Q 48.75 50.00 48.75 50.63
  L 48.75 53.50
  Q 48.75 54.00 49.25 54.00
  L 67.71 54.00
  Q 68.28 54.00 68.29 54.57"
/>
<path fill="#21325e" d="
  M 0.00 0.00
  L 100.00 0.00
  L 100.00 100.00
  L 0.00 100.00
  L 0.00 0.00
  Z
  M 68.29 54.57
  C 68.37 57.29 68.30 63.66 65.28 64.79
  C 58.14 67.45 44.68 66.16 37.89 65.17
  C 34.31 64.65 32.46 62.83 32.12 59.32
  C 31.59 54.03 29.59 35.92 37.26 34.72
  Q 49.53 32.79 63.19 34.58
  C 66.96 35.08 68.27 37.57 67.89 41.09
  Q 67.82 41.75 68.49 41.75
  L 74.00 41.75
  Q 74.52 41.75 74.60 41.24
  C 75.69 34.29 71.73 31.42 65.25 30.67
  C 57.13 29.73 35.46 28.11 28.73 33.74
  C 23.83 37.85 24.53 50.92 25.32 57.62
  C 25.98 63.18 27.79 67.74 33.50 68.79
  Q 48.98 71.64 66.36 69.05
  C 75.82 67.64 75.41 57.82 74.92 50.43
  Q 74.90 50.00 74.47 50.00
  L 49.38 50.00
  Q 48.75 50.00 48.75 50.63
  L 48.75 53.50
  Q 48.75 54.00 49.25 54.00
  L 67.71 54.00
  Q 68.28 54.00 68.29 54.57
  Z"
/>
<path fill="#ffffff" d="
  M 67.71 54.00
  L 49.25 54.00
  Q 48.75 54.00 48.75 53.50
  L 48.75 50.63
  Q 48.75 50.00 49.38 50.00
  L 74.47 50.00
  Q 74.90 50.00 74.92 50.43
  C 75.41 57.82 75.82 67.64 66.36 69.05
  Q 48.98 71.64 33.50 68.79
  C 27.79 67.74 25.98 63.18 25.32 57.62
  C 24.53 50.92 23.83 37.85 28.73 33.74
  C 35.46 28.11 57.13 29.73 65.25 30.67
  C 71.73 31.42 75.69 34.29 74.60 41.24
  Q 74.52 41.75 74.00 41.75
  L 68.49 41.75
  Q 67.82 41.75 67.89 41.09
  C 68.27 37.57 66.96 35.08 63.19 34.58
  Q 49.53 32.79 37.26 34.72
  C 29.59 35.92 31.59 54.03 32.12 59.32
  C 32.46 62.83 34.31 64.65 37.89 65.17
  C 44.68 66.16 58.14 67.45 65.28 64.79
  C 68.30 63.66 68.37 57.29 68.29 54.57
  Q 68.28 54.00 67.71 54.00
  Z"
/>
</svg>
